<?xml version="1.0" encoding="utf-8"?>
<!-- Svg Vector Icons : http://www.onlinewebfonts.com/icon -->
<!DOCTYPE svg PUBLIC "-//W3C//DTD SVG 1.1//EN" "http://www.w3.org/Graphics/SVG/1.1/DTD/svg11.dtd">
<svg version="1.1" xmlns="http://www.w3.org/2000/svg" xmlns:xlink="http://www.w3.org/1999/xlink" x="0px" y="0px" viewBox="0 0 1000 1000" enable-background="new 0 0 1000 1000" xml:space="preserve">
<metadata> Svg Vector Icons : http://www.onlinewebfonts.com/icon </metadata>
<g><g transform="translate(0.000000,512.000000) scale(0.100000,-0.100000)"><path d="M7682.7,4876.9c-74.6-76.5-306.1-329-514.6-560.5c-443.8-491.7-901.1-960.4-1025.4-1054.1c-72.7-53.6-107.1-65-181.8-65c-53.6,0-120.5-13.4-153-32.5c-34.4-19.1-287-294.6-562.4-614.1l-501.2-579.7l72.7-80.3c38.3-44,225.7-237.2,415.1-430.4l344.4-350.1l132,42.1c103.3,32.5,160.7,40.2,281.2,32.5c214.3-11.5,321.4-70.8,543.3-290.8c204.7-202.8,317.6-287,428.5-315.7c91.8-24.9,101.4-23,306.1,78.4c133.9,67,179.8,80.3,308,88c99.5,5.7,197-1.9,287-23c191.3-44,417.1-40.2,547.2,7.7c107.1,40.2,156.9,89.9,1329.6,1304.7l160.7,166.4l-65,65c-55.5,55.5-82.3,67-189.4,76.5c-220,23-279.3,67-684.9,497.4c-426.6,451.5-589.2,642.8-759.5,893.4c-225.7,334.8-309.9,568.2-290.8,813.1c11.5,153-7.6,279.3-57.4,394.1l-34.4,76.5L7682.7,4876.9z M7254.2,3434.4c63.1-26.8,195.1-164.5,721.2-761.4c353.9-399.8,658.1-753.8,677.2-786.3c53.6-88,63.1-200.9,26.8-325.2c-59.3-206.6-281.2-373.1-499.3-373.1c-170.3,0-223.8,49.7-901.1,818.8c-344.4,392.2-644.7,746.1-665.8,784.4c-118.6,220,38.3,556.7,306.1,650.4C7007.4,3472.7,7168.1,3468.9,7254.2,3434.4z M5542,2309.5c36.3-15.3,78.4-53.6,95.7-86.1l30.6-59.3h-202.8c-111,0-200.9,5.7-200.9,15.3c0,34.4,67,105.2,122.4,130.1C5461.6,2342.1,5463.5,2342.1,5542,2309.5z M5643.4,2037.9c-26.8-59.3-107.1-103.3-187.5-103.3c-80.4,0-128.2,28.7-162.6,95.7l-30.6,57.4h202.8h200.9L5643.4,2037.9z M7026.5,1398.9c19.1-11.5,49.8-45.9,65-76.5l30.6-57.4h-202.8h-202.8l30.6,57.4c15.3,30.6,44,65,61.2,74.6C6852.5,1423.8,6978.7,1423.8,7026.5,1398.9z M7091.6,1129.2c-76.5-147.3-304.2-130.1-359.6,26.8c-11.5,28.7,5.7,32.5,189.4,32.5h200.9L7091.6,1129.2z"/><path d="M2423.6-1105.3C1161-2660.7,120.3-3953.9,110.7-3980.7c-32.5-91.8,3.8-179.8,181.7-420.9l174.1-235.3l221.9-68.9l223.8-70.8l5.7,122.4c3.8,67,9.6,122.5,15.3,122.5c3.8,0,51.7-21,103.3-47.8c51.7-26.8,99.5-47.8,105.2-47.8s9.6,55.5,9.6,124.3v124.4l72.7-36.4c38.3-19.1,91.8-42.1,114.8-49.7c44-13.4,45.9-11.5,38.3,103.3c-1.9,65,0,116.7,7.7,116.7c7.6,0,63.1-21,122.4-47.8l107.1-47.8l-7.7,124.3c-7.7,139.6-7.7,139.6,141.6,65.1c40.2-21.1,76.5-36.4,84.2-36.4c7.7,0,7.7,55.5,1.9,124.3c-7.7,68.9-7.7,124.4-1.9,124.4c3.8,0,51.7-21,103.3-47.8c135.8-68.9,141.6-67,126.3,67c-7.6,67-5.7,114.8,3.8,114.8s67-21,128.2-47.8l109-47.8l-13.4,124.3c-7.7,68.9-9.6,124.4-1.9,124.4c5.8,0,59.3-21,118.6-47.8c59.3-26.8,111-47.8,114.8-47.8s0,55.5-5.7,126.3l-11.5,124.3l111-47.8c61.2-28.7,116.7-49.7,122.4-49.7c7.7,0,9.6,51.6,5.8,114.8c-9.6,133.9-5.8,135.8,130.1,67l95.7-47.8v124.4c0,68.9,3.8,124.3,7.6,124.3c3.8,0,53.6-21,111-47.8l101.4-47.8l5.7,122.5l5.7,124.3l105.2-47.8c57.4-24.9,109-45.9,112.9-45.9c5.7,0,9.6,51.6,9.6,116.7c0,130.1,1.9,130.1,158.8,51.6l74.6-36.3l-7.7,124.4c-5.7,141.5-5.7,141.5,141.6,67c40.2-21.1,76.5-36.4,84.2-36.4c7.7,0,7.7,55.5,3.8,124.4c-5.7,68.9-7.7,124.3-3.8,124.3c5.7,0,51.7-21,103.3-47.8c135.8-68.9,141.6-67,128.2,67c-7.7,63.1-5.8,114.8,3.8,114.8s65-21.1,126.3-47.8l109-49.7l-13.4,126.3c-5.7,68.9-7.7,124.4-1.9,124.4c5.8,0,59.3-21.1,118.6-47.8c59.3-26.8,111-47.8,116.7-47.8c3.8,0,1.9,55.5-5.8,126.3l-13.4,124.4l111-47.8c61.2-28.7,116.7-49.7,124.4-49.7c9.6,0,11.5,51.6,5.7,114.8c-13.4,133.9-7.7,135.8,128.2,67c51.7-26.8,97.6-47.8,101.4-47.8c1.9,0,1.9,55.5-1.9,124.4c-3.8,68.9-3.8,124.4,1.9,124.4c5.7,0,55.5-21.1,112.9-47.8l101.4-47.8l5.7,122.4l5.7,124.3l105.2-47.8c57.4-24.9,109-45.9,112.9-45.9c5.7,0,9.6,51.6,9.6,114.8c0,63.1,3.8,114.8,9.6,114.8c3.8,0,55.5-21.1,112.9-45.9l105.2-47.8l5.7,124.3l5.7,122.5l101.4-47.8c57.4-26.8,107.1-47.8,112.9-47.8c5.7,0,5.7,55.5,1.9,122.4c-7.7,137.8-13.4,135.8,158.8,47.8l80.4-40.2l-9.6,126.3c-5.7,72.7-3.8,126.3,7.7,126.3c9.6,0,42.1-13.4,72.7-28.7c32.5-17.2,80.4-38.3,107.1-49.8l51.7-19.1l-13.4,126.3c-7.6,68.9-9.6,124.4-5.7,124.4c5.7,0,57.4-21.1,116.7-47.8c59.3-26.8,112.9-47.8,118.6-47.8c3.8,0,3.8,55.5-3.8,126.3L6598-856.6l111-47.8c61.2-28.7,116.7-49.7,126.3-49.7s11.5,51.6,3.8,114.8c-13.4,133.9-7.6,135.8,128.2,67c51.7-26.8,97.6-47.8,101.4-47.8c1.9,0,1.9,55.5-1.9,124.4c-3.8,68.9-1.9,124.3,3.8,124.3c7.6,0,55.5-21.1,107.1-47.8c51.7-26.8,99.5-47.8,105.2-47.8c5.7,0,9.6,55.5,9.6,124.4v124.3l72.7-36.4c155-76.5,156.9-76.5,156.9,53.6c0,65,3.8,116.7,9.6,116.7c3.8,0,55.5-21.1,114.8-45.9l105.2-47.8v122.4v124.4l107.1-47.8c59.3-26.8,111-47.8,114.8-47.8c3.8,0,7.7,51.6,7.7,114.8c0,67,7.7,114.8,19.1,114.8c11.5,0,63.1-21.1,114.8-47.8l95.7-47.8V54l-1.9,149.2l-128.2,151.1c-176,208.5-218.1,231.5-434.3,231.5c-166.4,0-176-1.9-321.4-82.3c-254.4-143.5-422.8-130.1-663.8,51.7c-68.9,51.7-177.9,149.2-243,220c-151.1,158.8-239.1,216.2-371.1,243c-139.7,28.7-292.7-3.8-401.8-82.3l-80.3-57.4l-409.4,422.8c-225.7,231.5-417.1,422.8-422.8,420.9C4725.1,1722.2,3686.3,450,2423.6-1105.3z M812.8-3789.4c45.9-24.9,109.1-130.1,109.1-183.7c0-70.8-53.6-164.5-112.9-200.9c-109-65.1-262.1-24.9-317.6,82.3C386.2-3888.9,604.3-3682.3,812.8-3789.4z"/></g></g>
</svg>